<svg xmlns="http://www.w3.org/2000/svg" style="display:none" aria-hidden="true">
<!-- ============================================================
     IRIS · Icon Sprite
     Uso: <svg><use href="sprite.svg#icon-latido"/></svg>
     Grilla 24×24 · stroke 1.6 · linecap/linejoin round · stroke=currentColor
     Firma: dot indigo (#5847E0) o cuarto de círculo · nunca ambos.
     ============================================================ -->

  <symbol id="icon-latido" viewBox="0 0 24 24" fill="none" stroke="currentColor" stroke-width="1.6" stroke-linecap="round" stroke-linejoin="round">
    <path d="M3 12 L7 12 L9 7 L13 17 L15 12 L21 12"/>
    <circle cx="13" cy="17" r="1.3" fill="#5847E0" stroke="none"/>
  </symbol>

  <symbol id="icon-paciente" viewBox="0 0 24 24" fill="none" stroke="currentColor" stroke-width="1.6" stroke-linecap="round" stroke-linejoin="round">
    <circle cx="12" cy="8" r="4"/>
    <path d="M4 21 a 8 8 0 0 1 16 0"/>
    <circle cx="12" cy="8" r="1.3" fill="#5847E0" stroke="none"/>
  </symbol>

  <symbol id="icon-cuidado" viewBox="0 0 24 24" fill="none" stroke="currentColor" stroke-width="1.6" stroke-linecap="round" stroke-linejoin="round">
    <path d="M12 3 L4 7 L4 13 a8 8 0 0 0 8 8 a8 8 0 0 0 8 -8 L20 7 Z"/>
    <path d="M9 12 L11 14 L15 10"/>
    <circle cx="15" cy="10" r="1.3" fill="#5847E0" stroke="none"/>
  </symbol>

  <symbol id="icon-videollamada" viewBox="0 0 24 24" fill="none" stroke="currentColor" stroke-width="1.6" stroke-linecap="round" stroke-linejoin="round">
    <rect x="3" y="5" width="14" height="14" rx="2"/>
    <path d="M17 9 L21 7 L21 17 L17 15Z"/>
    <circle cx="10" cy="12" r="1.3" fill="#5847E0" stroke="none"/>
  </symbol>

  <symbol id="icon-agenda" viewBox="0 0 24 24" fill="none" stroke="currentColor" stroke-width="1.6" stroke-linecap="round" stroke-linejoin="round">
    <rect x="4" y="5" width="16" height="16" rx="2"/>
    <path d="M4 9 L20 9"/>
    <path d="M8 3 L8 7"/>
    <path d="M16 3 L16 7"/>
    <circle cx="12" cy="14" r="1.3" fill="#5847E0" stroke="none"/>
  </symbol>

  <symbol id="icon-chat" viewBox="0 0 24 24" fill="none" stroke="currentColor" stroke-width="1.6" stroke-linecap="round" stroke-linejoin="round">
    <path d="M21 15 a2 2 0 0 1 -2 2 H7 L3 21 V5 a2 2 0 0 1 2 -2 H19 a2 2 0 0 1 2 2 z"/>
    <circle cx="9" cy="11" r="1.3" fill="#5847E0" stroke="none"/>
    <circle cx="13" cy="11" r="0.9" fill="currentColor"/>
    <circle cx="17" cy="11" r="0.9" fill="currentColor"/>
  </symbol>

  <symbol id="icon-receta" viewBox="0 0 24 24" fill="none" stroke="currentColor" stroke-width="1.6" stroke-linecap="round" stroke-linejoin="round">
    <rect x="4" y="3" width="16" height="18" rx="2"/>
    <path d="M9 8 L15 8"/>
    <path d="M9 12 L15 12"/>
    <path d="M9 16 L13 16"/>
    <path d="M16 19 Q20 19 20 15" stroke-width="1.4"/>
  </symbol>

  <symbol id="icon-tablero" viewBox="0 0 24 24" fill="none" stroke="currentColor" stroke-width="1.6" stroke-linecap="round" stroke-linejoin="round">
    <rect x="3" y="3" width="18" height="18" rx="2"/>
    <path d="M3 9 L21 9"/>
    <path d="M9 3 L9 21"/>
    <circle cx="15" cy="15" r="1.3" fill="#5847E0" stroke="none"/>
  </symbol>

  <symbol id="icon-mensaje" viewBox="0 0 24 24" fill="none" stroke="currentColor" stroke-width="1.6" stroke-linecap="round" stroke-linejoin="round">
    <path d="M21 11.5 a8.38 8.38 0 0 1 -.9 3.8 a8.5 8.5 0 0 1 -7.6 4.7 a8.38 8.38 0 0 1 -3.8 -.9 L3 21 l1.9 -5.7 a8.38 8.38 0 0 1 -.9 -3.8 a8.5 8.5 0 0 1 4.7 -7.6 a8.38 8.38 0 0 1 3.8 -.9 h.5 a8.48 8.48 0 0 1 8 8 z"/>
    <circle cx="12" cy="12" r="1.3" fill="#5847E0" stroke="none"/>
  </symbol>

  <symbol id="icon-hora" viewBox="0 0 24 24" fill="none" stroke="currentColor" stroke-width="1.6" stroke-linecap="round" stroke-linejoin="round">
    <circle cx="12" cy="12" r="9"/>
    <path d="M12 7 L12 12 L15 14"/>
    <circle cx="12" cy="12" r="1.3" fill="#5847E0" stroke="none"/>
  </symbol>

  <symbol id="icon-llamada" viewBox="0 0 24 24" fill="none" stroke="currentColor" stroke-width="1.6" stroke-linecap="round" stroke-linejoin="round">
    <path d="M22 16.92 v3 a2 2 0 0 1 -2.18 2 a19.79 19.79 0 0 1 -8.63 -3.07 a19.5 19.5 0 0 1 -6 -6 a19.79 19.79 0 0 1 -3.07 -8.67 A2 2 0 0 1 4.11 2 h3 a2 2 0 0 1 2 1.72 a12.84 12.84 0 0 0 .7 2.81 a2 2 0 0 1 -.45 2.11 L8.09 9.91 a16 16 0 0 0 6 6 l1.27 -1.27 a2 2 0 0 1 2.11 -.45 a12.84 12.84 0 0 0 2.81 .7 A2 2 0 0 1 22 16.92 z"/>
    <circle cx="6" cy="6" r="1.3" fill="#5847E0" stroke="none"/>
  </symbol>

  <symbol id="icon-descargar" viewBox="0 0 24 24" fill="none" stroke="currentColor" stroke-width="1.6" stroke-linecap="round" stroke-linejoin="round">
    <path d="M21 15 V19 a2 2 0 0 1 -2 2 H5 a2 2 0 0 1 -2 -2 v -4"/>
    <path d="M7 10 L12 15 L17 10"/>
    <path d="M12 15 V3"/>
  </symbol>

  <symbol id="icon-buscar" viewBox="0 0 24 24" fill="none" stroke="currentColor" stroke-width="1.6" stroke-linecap="round" stroke-linejoin="round">
    <circle cx="11" cy="11" r="7"/>
    <path d="M21 21 L16.65 16.65"/>
    <circle cx="11" cy="11" r="1.3" fill="#5847E0" stroke="none"/>
  </symbol>

  <symbol id="icon-confirmado" viewBox="0 0 24 24" fill="none" stroke="currentColor" stroke-width="1.6" stroke-linecap="round" stroke-linejoin="round">
    <path d="M22 11.08 V12 a10 10 0 1 1 -5.93 -9.14"/>
    <path d="M22 4 L12 14.01 L9 11.01"/>
    <circle cx="12" cy="14.01" r="1.3" fill="#5847E0" stroke="none"/>
  </symbol>

  <symbol id="icon-alerta" viewBox="0 0 24 24" fill="none" stroke="currentColor" stroke-width="1.6" stroke-linecap="round" stroke-linejoin="round">
    <path d="M10.29 3.86 L1.82 18 a2 2 0 0 0 1.71 3 h16.94 a2 2 0 0 0 1.71 -3 L13.71 3.86 a2 2 0 0 0 -3.42 0z"/>
    <line x1="12" y1="9" x2="12" y2="13"/>
    <circle cx="12" cy="17" r="1.3" fill="#5847E0" stroke="none"/>
  </symbol>

  <symbol id="icon-aprobado" viewBox="0 0 24 24" fill="none" stroke="currentColor" stroke-width="1.6" stroke-linecap="round" stroke-linejoin="round">
    <circle cx="12" cy="12" r="9"/>
    <path d="M8 12 L11 15 L16 9"/>
    <path d="M3 12 Q3 8 6 5" stroke-width="1.4" opacity="0.5"/>
  </symbol>

  <symbol id="icon-soporte" viewBox="0 0 24 24" fill="none" stroke="currentColor" stroke-width="1.6" stroke-linecap="round" stroke-linejoin="round">
    <path d="M3 18 v -6 a9 9 0 0 1 18 0 v6"/>
    <path d="M21 19 a2 2 0 0 1 -2 2 h -1 v -6 h3z"/>
    <path d="M3 19 a2 2 0 0 0 2 2 h1 v -6 H3z"/>
    <circle cx="12" cy="12" r="1.3" fill="#5847E0" stroke="none"/>
  </symbol>

  <symbol id="icon-medico" viewBox="0 0 24 24" fill="none" stroke="currentColor" stroke-width="1.6" stroke-linecap="round" stroke-linejoin="round">
    <path d="M20 21 v -2 a4 4 0 0 0 -4 -4 H8 a4 4 0 0 0 -4 4 v2"/>
    <circle cx="12" cy="7" r="4"/>
    <path d="M22 8 Q22 4 18 4" stroke-width="1.4" opacity="0.5"/>
    <circle cx="12" cy="7" r="1.3" fill="#5847E0" stroke="none"/>
  </symbol>

  <symbol id="icon-clinica" viewBox="0 0 24 24" fill="none" stroke="currentColor" stroke-width="1.6" stroke-linecap="round" stroke-linejoin="round">
    <path d="M3 21 V11 L12 4 L21 11 V21z"/>
    <path d="M9 21 V14 H15 V21"/>
    <circle cx="12" cy="9" r="1.3" fill="#5847E0" stroke="none"/>
  </symbol>

  <symbol id="icon-tenant" viewBox="0 0 24 24" fill="none" stroke="currentColor" stroke-width="1.6" stroke-linecap="round" stroke-linejoin="round">
    <rect x="3" y="3" width="18" height="18" rx="2"/>
    <path d="M9 9 H15 V15 H9z" fill="#5847E0" stroke="none"/>
  </symbol>

  <symbol id="icon-config" viewBox="0 0 24 24" fill="none" stroke="currentColor" stroke-width="1.6" stroke-linecap="round" stroke-linejoin="round">
    <circle cx="12" cy="12" r="3"/>
    <path d="M19.4 15 a1.65 1.65 0 0 0 .33 1.82 l.06.06 a2 2 0 1 1 -2.83 2.83 l -.06 -.06 a1.65 1.65 0 0 0 -1.82 -.33 a1.65 1.65 0 0 0 -1 1.51 V21 a2 2 0 1 1 -4 0 v -.09 a1.65 1.65 0 0 0 -1 -1.51 a1.65 1.65 0 0 0 -1.82 .33 l -.06 .06 a2 2 0 1 1 -2.83 -2.83 l .06 -.06 a1.65 1.65 0 0 0 .33 -1.82 a1.65 1.65 0 0 0 -1.51 -1 H3 a2 2 0 1 1 0 -4 h .09 a1.65 1.65 0 0 0 1.51 -1 a1.65 1.65 0 0 0 -.33 -1.82 l -.06 -.06 a2 2 0 1 1 2.83 -2.83 l .06 .06 a1.65 1.65 0 0 0 1.82 .33 H9 a1.65 1.65 0 0 0 1 -1.51 V3 a2 2 0 1 1 4 0 v .09 a1.65 1.65 0 0 0 1 1.51 a1.65 1.65 0 0 0 1.82 -.33 l .06 -.06 a2 2 0 1 1 2.83 2.83 l -.06 .06 a1.65 1.65 0 0 0 -.33 1.82 V9 a1.65 1.65 0 0 0 1.51 1 H21 a2 2 0 1 1 0 4 h -.09 a1.65 1.65 0 0 0 -1.51 1z"/>
  </symbol>

  <symbol id="icon-check" viewBox="0 0 24 24" fill="none" stroke="currentColor" stroke-width="1.6" stroke-linecap="round" stroke-linejoin="round">
    <path d="M9 11 L12 14 L22 4"/>
    <path d="M21 12 v7 a2 2 0 0 1 -2 2 H5 a2 2 0 0 1 -2 -2 V5 a2 2 0 0 1 2 -2 h11"/>
    <circle cx="12" cy="14" r="1.3" fill="#5847E0" stroke="none"/>
  </symbol>

  <symbol id="icon-vitales" viewBox="0 0 24 24" fill="none" stroke="currentColor" stroke-width="1.6" stroke-linecap="round" stroke-linejoin="round">
    <path d="M4 12 h4 l3 -8 l2 16 l3 -8 h4"/>
    <circle cx="11" cy="4" r="1.3" fill="#5847E0" stroke="none"/>
  </symbol>

  <symbol id="icon-iris" viewBox="0 0 32 32" fill="none" stroke="currentColor" stroke-width="3" stroke-linecap="round">
    <path d="M16 4 Q16 13 24 13"/>
    <path d="M28 16 Q19 16 19 24"/>
    <path d="M16 28 Q16 19 8 19"/>
    <path d="M4 16 Q13 16 13 8"/>
    <circle cx="16" cy="16" r="3.2" fill="#5847E0" stroke="none"/>
  </symbol>

</svg>
